#N canvas 0 25 1440 819 12;
#X floatatom 2097 586 5 0 0 0 - - - 0;
#X text 2025 559 carrier;
#X obj 2141 615 osc~;
#X text 2196 641 mod depth;
#X obj 2097 556 mtof;
#X msg 2097 521 41;
#X obj 2097 693 osc~;
#X obj 2141 585 mtof;
#X obj 2097 661 *~;
#X obj 2141 556 - 56;
#X obj 2097 1015 dac~;
#X obj 1017 436 bng 15 250 50 0 empty empty empty 17 7 0 10 #fcfcfc
#000000 #000000;
#X obj 2207 755 + 1;
#X obj 2169 756 f 1;
#X floatatom 2169 779 5 0 0 0 - - - 0;
#X obj 2169 826 + 1;
#X text 2237 755 Increment;
#X text 2238 778 Current value;
#X text 2239 801 Mod number of steps;
#X text 2238 826 1 indexed;
#X obj 2169 802 % 2;
#X obj 2169 850 sel 1 2;
#X obj 2097 965 *~ 0;
#X obj 2141 642 *~ 2.5;
#X obj 2192 881 bng 15 250 50 0 empty empty empty 17 7 0 10 #fcfcfc
#000000 #000000;
#X obj 2122 937 line;
#X obj 2169 881 bng 15 250 50 0 empty empty empty 17 7 0 10 #fcfcfc
#000000 #000000;
#X obj 2222 936 line;
#X msg 2122 908 0 \, 0.25 40 1;
#X msg 2222 908 0.25 \, 0 40 1;
#X text 2320 907 smooth on and off;
#X msg 1375 659 65;
#X obj 1375 693 mtof;
#X floatatom 1375 717 5 0 0 0 - - - 0;
#X obj 1422 693 - 56;
#X obj 1422 717 mtof;
#X obj 1422 741 osc~;
#X obj 1375 784 *~;
#X obj 1375 808 osc~;
#X obj 824 436 bng 15 250 50 0 empty empty empty 17 7 0 10 #fcfcfc
#000000 #000000;
#X obj 1482 833 vline~;
#X obj 1375 632 loadbang;
#X obj 2097 494 loadbang;
#X obj 1375 852 *~;
#X obj 1375 930 dac~;
#X obj 1375 876 hip~ 1000;
#X obj 1422 765 *~ 2.7;
#X msg 1482 809 0.35 2 \, 0.25 13 15 \, 0 50 65;
#X msg 1704 659 65;
#X obj 1704 693 mtof;
#X floatatom 1704 717 5 0 0 0 - - - 0;
#X obj 1751 693 - 56;
#X obj 1751 717 mtof;
#X obj 1751 741 osc~;
#X obj 1704 784 *~;
#X obj 1704 808 osc~;
#X obj 943 436 bng 15 250 50 0 empty empty empty 17 7 0 10 #fcfcfc
#000000 #000000;
#X obj 1851 815 vline~;
#X obj 1704 632 loadbang;
#X obj 1704 834 *~;
#X obj 1704 912 dac~;
#X obj 1704 858 hip~ 1000;
#X text 728 434 short bubble;
#X text 853 435 long bubble;
#X text 964 434 wobble;
#X msg 1851 791 0.35 2 \, 0.25 23 15 \, 0 130 155;
#X obj 1797 790 vline~;
#X obj 1751 765 *~;
#X msg 1797 766 2.7 0 \, 2 100 155;
#X text 1843 746 reduce mod depth over time;
#X text 1917 812 envelope;
#X text 1550 835 envelope;
#X text 569 372 wub;
#X obj 905 663 mtof;
#X floatatom 905 693 5 0 0 0 - - - 0;
#X obj 905 728 *~;
#X obj 905 766 phasor~;
#X obj 905 814 *~;
#X obj 905 894 dac~;
#X obj 597 374 bng 15 250 50 0 empty empty empty 17 7 0 10 #fcfcfc
#000000 #000000;
#X obj 1077 795 vline~;
#X obj 947 686 osc~;
#X obj 1077 857 line;
#X msg 1077 905 12500 \, 135 160 1;
#X obj 1077 929 line;
#X msg 1077 833 135 \, 12500 50 1;
#X obj 1077 881 delay 50;
#X obj 970 789 phasor~;
#X obj 947 709 *~ 9;
#X obj 970 814 *~;
#X text 1181 873 filter envelope;
#X text 1160 796 volume envelope;
#X text 983 738 stereo;
#X obj 988 664 loadbang;
#X msg 988 690 12;
#X msg 401 370 29;
#N canvas 0 22 450 278 (subpatch) 0;
#X array drum-loop 282240 float 2;
#X coords 0 1 282240 -1 200 140 1;
#X restore 422 737 graph;
#X obj 423 935 soundfiler;
#X floatatom 423 959 6 0 0 0 - - - 0;
#X obj 423 886 loadbang;
#X text 185 984 With help from http://www.pd-tutorial.com/english/ch03s04.html
;
#X msg 422 603 0 \, 282240 6400;
#X obj 422 627 line~;
#X obj 422 675 *~ 0.5;
#X obj 422 699 dac~;
#X obj 422 651 tabread~ drum-loop;
#X text 545 704 drum-loop;
#N canvas 0 22 450 278 (subpatch) 0;
#X array crash 70560 float 2;
#X coords 0 1 70560 -1 200 140 1 0 0;
#X restore 64 738 graph;
#X obj 65 936 soundfiler;
#X floatatom 65 960 6 0 0 0 - - - 0;
#X obj 65 887 loadbang;
#X obj 64 628 line~;
#X obj 64 676 *~ 0.5;
#X obj 64 700 dac~;
#X obj 64 652 tabread~ crash;
#X msg 64 604 0 \, 70560 1600;
#X text 207 696 crash;
#X obj 718 -16 tgl 15 0 empty empty empty 17 7 0 10 #fcfcfc #000000
#000000 0 1;
#X obj 758 111 + 1;
#X floatatom 718 214 5 0 0 0 - - - 0;
#X obj 718 190 + 1;
#X obj 410 237 sel 1 2 3 4 5 6 7 8 9 10 11 12 13 14 15 16;
#X obj 357 292 bng 15 250 50 0 empty empty empty 17 7 0 10 #fcfcfc
#000000 #000000;
#X obj 377 292 bng 15 250 50 0 empty empty empty 17 7 0 10 #fcfcfc
#000000 #000000;
#X obj 718 89 bng 15 250 50 0 empty empty empty 17 7 0 10 #fcfcfc #000000
#000000;
#X obj 397 292 bng 15 250 50 0 empty empty empty 17 7 0 10 #fcfcfc
#000000 #000000;
#X obj 417 292 bng 15 250 50 0 empty empty empty 17 7 0 10 #fcfcfc
#000000 #000000;
#X obj 457 292 bng 15 250 50 0 empty empty empty 17 7 0 10 #fcfcfc
#000000 #000000;
#X obj 477 292 bng 15 250 50 0 empty empty empty 17 7 0 10 #fcfcfc
#000000 #000000;
#X obj 497 292 bng 15 250 50 0 empty empty empty 17 7 0 10 #fcfcfc
#000000 #000000;
#X obj 517 292 bng 15 250 50 0 empty empty empty 17 7 0 10 #fcfcfc
#000000 #000000;
#X obj 557 292 bng 15 250 50 0 empty empty empty 17 7 0 10 #fcfcfc
#000000 #000000;
#X obj 577 292 bng 15 250 50 0 empty empty empty 17 7 0 10 #fcfcfc
#000000 #000000;
#X obj 597 292 bng 15 250 50 0 empty empty empty 17 7 0 10 #fcfcfc
#000000 #000000;
#X obj 617 292 bng 15 250 50 0 empty empty empty 17 7 0 10 #fcfcfc
#000000 #000000;
#X obj 657 292 bng 15 250 50 0 empty empty empty 17 7 0 10 #fcfcfc
#000000 #000000;
#X obj 677 292 bng 15 250 50 0 empty empty empty 17 7 0 10 #fcfcfc
#000000 #000000;
#X obj 697 292 bng 15 250 50 0 empty empty empty 17 7 0 10 #fcfcfc
#000000 #000000;
#X obj 717 292 bng 15 250 50 0 empty empty empty 17 7 0 10 #fcfcfc
#000000 #000000;
#X obj 757 292 bng 15 250 50 0 empty empty empty 17 7 0 10 #fcfcfc
#000000 #000000;
#X obj 777 292 bng 15 250 50 0 empty empty empty 17 7 0 10 #fcfcfc
#000000 #000000;
#X obj 797 292 bng 15 250 50 0 empty empty empty 17 7 0 10 #fcfcfc
#000000 #000000;
#X obj 817 292 bng 15 250 50 0 empty empty empty 17 7 0 10 #fcfcfc
#000000 #000000;
#X obj 857 292 bng 15 250 50 0 empty empty empty 17 7 0 10 #fcfcfc
#000000 #000000;
#X obj 877 292 bng 15 250 50 0 empty empty empty 17 7 0 10 #fcfcfc
#000000 #000000;
#X obj 897 292 bng 15 250 50 0 empty empty empty 17 7 0 10 #fcfcfc
#000000 #000000;
#X obj 917 292 bng 15 250 50 0 empty empty empty 17 7 0 10 #fcfcfc
#000000 #000000;
#X obj 957 292 bng 15 250 50 0 empty empty empty 17 7 0 10 #fcfcfc
#000000 #000000;
#X obj 977 292 bng 15 250 50 0 empty empty empty 17 7 0 10 #fcfcfc
#000000 #000000;
#X obj 997 292 bng 15 250 50 0 empty empty empty 17 7 0 10 #fcfcfc
#000000 #000000;
#X obj 1017 292 bng 15 250 50 0 empty empty empty 17 7 0 10 #fcfcfc
#000000 #000000;
#X obj 1057 292 bng 15 250 50 0 empty empty empty 17 7 0 10 #fcfcfc
#000000 #000000;
#X obj 1077 292 bng 15 250 50 0 empty empty empty 17 7 0 10 #fcfcfc
#000000 #000000;
#X obj 1097 292 bng 15 250 50 0 empty empty empty 17 7 0 10 #fcfcfc
#000000 #000000;
#X obj 1117 292 bng 15 250 50 0 empty empty empty 17 7 0 10 #fcfcfc
#000000 #000000;
#X obj 718 237 sel 17 18 19 20 21 22 23 24 25 26 27 28 29 30 31 32
;
#X obj 718 166 % 32;
#X obj 718 65 metro 200;
#X obj 277 377 + 1;
#X obj 239 378 f 1;
#X obj 239 427 + 1;
#X obj 239 403 % 4;
#X floatatom 239 451 5 0 0 0 - - - 0;
#X obj 239 474 sel 1 2 3 4;
#X obj 970 766 +~ 4;
#X floatatom 905 639 5 0 0 0 - - - 0;
#X obj 401 394 s wubf;
#X obj 905 611 r wubf;
#X msg 451 370 30;
#X msg 501 370 32;
#X obj 451 394 s wubf;
#X obj 501 394 s wubf;
#X obj 351 394 s wubf;
#X msg 351 370 27;
#X obj 417 489 line;
#X msg 417 465 135 \, 12500 12800 1;
#X obj 905 838 lop~;
#X obj 970 838 lop~;
#X obj 905 866 lop~;
#X obj 970 866 lop~;
#X msg 1455 896 0;
#X msg 1807 882 0;
#X msg 2172 972 0;
#X msg 2180 996 0.5;
#X msg 1815 906 0.8;
#X msg 1463 920 0.8;
#X obj 1375 904 *~;
#X obj 1704 885 *~;
#X obj 2097 990 *~;
#X msg 1077 771 0.4 50 50 \, 0 150 200;
#X floatatom 718 138 5 0 0 0 - - - 0;
#X msg 495 92 0;
#X obj 718 111 f 1;
#X text 447 69 reset;
#X obj 495 71 bng 15 250 50 0 empty empty empty 17 7 0 10 #fcfcfc #000000
#000000;
#X text 802 64 metronome at 300bpm (150 * 2);
#X text 1090 237 32 steps for four bars;
#X text 357 416 wub midi notes being sent to the sub module;
#X text 164 399 measure selector;
#X text 162 888 read the file;
#X text 522 885 read the file;
#X text 475 958 file length (in samples);
#X text 124 962 file length (in samples);
#X text 173 599 play the sample from the beginning for 1.6 seconds
(4 beats);
#X text 1054 652 second oscillator modulates frequency of the first
;
#X text 461 492 filter sweep for intro;
#X text 748 865 filters for secondary filter sweep;
#X text 1464 701 second oscillator modulates frequency of the first
;
#X text 1791 692 second oscillator modulates frequency of the first
;
#X text 2104 712 with help from https://www.youtube.com/watch?v=DgeTHuDSgC0
;
#X text 2112 770 on/off toggle;
#X text 2218 976 turn on/off for some measures;
#X text 1851 881 turn on/off for some measures;
#X text 1497 897 turn on/off for some measures;
#X text 245 104 With help from https://subscription.packtpub.com/book/hardware-and-creative/9781782164647/1/ch01lvl1sec12/creating-a-counter
;
#X msg 65 912 read -resize ./audio/crash.wav crash;
#X msg 423 911 read -resize ./audio/drum-loop.wav drum-loop;
#X text 709 -35 Play!;
#X text 17 -78 .;
#X connect 0 0 8 0;
#X connect 2 0 23 0;
#X connect 4 0 0 0;
#X connect 5 0 4 0;
#X connect 5 0 9 0;
#X connect 6 0 22 0;
#X connect 7 0 2 0;
#X connect 8 0 6 0;
#X connect 9 0 7 0;
#X connect 11 0 13 0;
#X connect 12 0 13 1;
#X connect 13 0 12 0;
#X connect 13 0 14 0;
#X connect 14 0 20 0;
#X connect 15 0 21 0;
#X connect 20 0 15 0;
#X connect 21 0 26 0;
#X connect 21 1 24 0;
#X connect 22 0 188 0;
#X connect 23 0 8 1;
#X connect 24 0 29 0;
#X connect 25 0 22 1;
#X connect 26 0 28 0;
#X connect 27 0 22 1;
#X connect 28 0 25 0;
#X connect 29 0 27 0;
#X connect 31 0 32 0;
#X connect 31 0 34 0;
#X connect 32 0 33 0;
#X connect 33 0 37 0;
#X connect 34 0 35 0;
#X connect 35 0 36 0;
#X connect 36 0 46 0;
#X connect 37 0 38 0;
#X connect 38 0 43 0;
#X connect 39 0 47 0;
#X connect 40 0 43 1;
#X connect 41 0 31 0;
#X connect 42 0 5 0;
#X connect 43 0 45 0;
#X connect 45 0 186 0;
#X connect 46 0 37 1;
#X connect 47 0 40 0;
#X connect 48 0 49 0;
#X connect 48 0 51 0;
#X connect 49 0 50 0;
#X connect 50 0 54 0;
#X connect 51 0 52 0;
#X connect 52 0 53 0;
#X connect 53 0 67 0;
#X connect 54 0 55 0;
#X connect 55 0 59 0;
#X connect 56 0 65 0;
#X connect 56 0 68 0;
#X connect 57 0 59 1;
#X connect 58 0 48 0;
#X connect 59 0 61 0;
#X connect 61 0 187 0;
#X connect 65 0 57 0;
#X connect 66 0 67 1;
#X connect 67 0 54 1;
#X connect 68 0 66 0;
#X connect 73 0 74 0;
#X connect 73 0 81 0;
#X connect 74 0 75 0;
#X connect 75 0 76 0;
#X connect 75 0 164 0;
#X connect 76 0 77 0;
#X connect 77 0 176 0;
#X connect 79 0 189 0;
#X connect 79 0 85 0;
#X connect 79 0 86 0;
#X connect 80 0 77 1;
#X connect 80 0 89 1;
#X connect 81 0 88 0;
#X connect 82 0 176 1;
#X connect 82 0 177 1;
#X connect 83 0 84 0;
#X connect 84 0 176 1;
#X connect 84 0 177 1;
#X connect 85 0 82 0;
#X connect 86 0 83 0;
#X connect 87 0 89 0;
#X connect 88 0 75 1;
#X connect 89 0 177 0;
#X connect 93 0 94 0;
#X connect 94 0 88 1;
#X connect 95 0 166 0;
#X connect 97 0 98 0;
#X connect 99 0 216 0;
#X connect 101 0 102 0;
#X connect 102 0 105 0;
#X connect 103 0 104 0;
#X connect 103 0 104 1;
#X connect 105 0 103 0;
#X connect 108 0 109 0;
#X connect 110 0 215 0;
#X connect 111 0 114 0;
#X connect 112 0 113 0;
#X connect 112 0 113 1;
#X connect 114 0 112 0;
#X connect 115 0 111 0;
#X connect 117 0 157 0;
#X connect 117 0 194 0;
#X connect 118 0 192 1;
#X connect 119 0 121 0;
#X connect 119 0 155 0;
#X connect 120 0 119 0;
#X connect 121 0 122 0;
#X connect 121 1 123 0;
#X connect 121 2 125 0;
#X connect 121 3 126 0;
#X connect 121 4 127 0;
#X connect 121 5 128 0;
#X connect 121 6 129 0;
#X connect 121 7 130 0;
#X connect 121 8 131 0;
#X connect 121 9 132 0;
#X connect 121 10 133 0;
#X connect 121 11 134 0;
#X connect 121 12 135 0;
#X connect 121 13 136 0;
#X connect 121 14 137 0;
#X connect 121 15 138 0;
#X connect 122 0 159 0;
#X connect 122 0 79 0;
#X connect 122 0 95 0;
#X connect 122 0 39 0;
#X connect 122 0 11 0;
#X connect 123 0 39 0;
#X connect 124 0 192 0;
#X connect 125 0 79 0;
#X connect 127 0 79 0;
#X connect 127 0 56 0;
#X connect 129 0 79 0;
#X connect 131 0 79 0;
#X connect 131 0 39 0;
#X connect 132 0 39 0;
#X connect 133 0 79 0;
#X connect 135 0 79 0;
#X connect 135 0 56 0;
#X connect 136 0 79 0;
#X connect 136 0 169 0;
#X connect 137 0 79 0;
#X connect 137 0 168 0;
#X connect 138 0 79 0;
#X connect 138 0 173 0;
#X connect 139 0 79 0;
#X connect 139 0 95 0;
#X connect 139 0 39 0;
#X connect 140 0 39 0;
#X connect 141 0 79 0;
#X connect 143 0 79 0;
#X connect 143 0 56 0;
#X connect 145 0 79 0;
#X connect 147 0 79 0;
#X connect 147 0 169 0;
#X connect 147 0 39 0;
#X connect 148 0 39 0;
#X connect 149 0 79 0;
#X connect 151 0 79 0;
#X connect 151 0 56 0;
#X connect 152 0 11 0;
#X connect 153 0 79 0;
#X connect 153 0 168 0;
#X connect 155 0 139 0;
#X connect 155 1 140 0;
#X connect 155 2 141 0;
#X connect 155 3 142 0;
#X connect 155 4 143 0;
#X connect 155 5 144 0;
#X connect 155 6 145 0;
#X connect 155 7 146 0;
#X connect 155 8 147 0;
#X connect 155 9 148 0;
#X connect 155 10 149 0;
#X connect 155 11 150 0;
#X connect 155 12 151 0;
#X connect 155 13 152 0;
#X connect 155 14 153 0;
#X connect 155 15 154 0;
#X connect 156 0 120 0;
#X connect 157 0 124 0;
#X connect 158 0 159 1;
#X connect 159 0 158 0;
#X connect 159 0 161 0;
#X connect 160 0 162 0;
#X connect 161 0 160 0;
#X connect 162 0 163 0;
#X connect 163 0 175 0;
#X connect 163 0 180 0;
#X connect 163 0 181 0;
#X connect 163 0 182 0;
#X connect 163 2 115 0;
#X connect 163 2 101 0;
#X connect 163 2 185 0;
#X connect 163 2 184 0;
#X connect 163 2 183 0;
#X connect 163 3 101 0;
#X connect 164 0 87 0;
#X connect 165 0 73 0;
#X connect 167 0 165 0;
#X connect 168 0 170 0;
#X connect 169 0 171 0;
#X connect 173 0 172 0;
#X connect 174 0 178 1;
#X connect 174 0 179 1;
#X connect 175 0 174 0;
#X connect 176 0 178 0;
#X connect 177 0 179 0;
#X connect 178 0 78 0;
#X connect 179 0 78 1;
#X connect 180 0 186 1;
#X connect 181 0 187 1;
#X connect 182 0 188 1;
#X connect 183 0 188 1;
#X connect 184 0 187 1;
#X connect 185 0 186 1;
#X connect 186 0 44 0;
#X connect 187 0 60 1;
#X connect 188 0 10 0;
#X connect 188 0 10 1;
#X connect 189 0 80 0;
#X connect 190 0 156 0;
#X connect 191 0 192 1;
#X connect 191 0 159 1;
#X connect 191 0 13 1;
#X connect 192 0 118 0;
#X connect 192 0 190 0;
#X connect 194 0 191 0;
#X connect 215 0 108 0;
#X connect 216 0 97 0;
