#N canvas 203 134 1077 724 12;
#X text 23 24 Hello \, World!;
#X obj 312 232 print;
#X msg 312 196 Hello World!;
#X obj 302 164 metro 1000;
#X msg 221 91 0;
#X msg 268 77 1;
#X obj 332 57 bng 15 250 50 0 empty empty empty 17 7 0 10 #fcfcfc #000000
#000000;
#X obj 378 79 tgl 15 0 empty empty empty 17 7 0 10 #fcfcfc #000000
#000000 0 1;
#X text 378 57 toggle;
#X text 330 33 bang;
#X text 256 49 start;
#X text 204 63 stop;
#X floatatom 392 138 5 0 0 0 - - - 0;
#X text 416 115 number;
#X obj 420 90 hsl 128 15 100 2000 0 0 empty empty empty -2 -8 0 10
#c7c6ff #000000 #000000 0 1;
#X connect 2 0 1 0;
#X connect 3 0 2 0;
#X connect 4 0 3 0;
#X connect 5 0 3 0;
#X connect 6 0 3 0;
#X connect 7 0 3 0;
#X connect 12 0 3 1;
#X connect 14 0 12 0;
