#N canvas 232 128 998 678 12;
#X text 24 20 turn computer sound down;
#X text 25 80 dsp off: cmd + .;
#X text 24 49 dsp on: cmd + /;
#X text 23 109 run/edit mode: cmd + E;
#X obj 504 537 dac~;
#X obj 648 257 vsl 15 128 0 1 0 0 empty empty empty 0 -9 0 10 #feffc6
#000000 #000000 0 1;
#X floatatom 648 417 5 0 0 0 - - - 0;
#X obj 504 481 *~ 0.25;
#X obj 504 419 osc~ 495;
#X obj 505 255 hsl 128 15 200 600 0 0 empty empty empty -2 -8 0 10
#e3c6ff #000000 #000000 0 1;
#X floatatom 480 291 5 0 0 0 - - - 0;
#X msg 397 291 440;
#X msg 357 292 330;
#X msg 586 418 0;
#X obj 294 190 bng 15 250 50 0 empty empty empty 17 7 0 10 #fcfcfc
#000000 #000000;
#X obj 294 160 metro 900;
#X obj 294 126 tgl 15 0 empty empty empty 17 7 0 10 #fcfcfc #000000
#000000 0 1;
#X obj 372 189 bng 15 250 50 0 empty empty empty 17 7 0 10 #fcfcfc
#000000 #000000;
#X obj 372 127 tgl 15 0 empty empty empty 17 7 0 10 #fcfcfc #000000
#000000 0 1;
#X obj 457 190 bng 15 250 50 0 empty empty empty 17 7 0 10 #fcfcfc
#000000 #000000;
#X obj 457 126 tgl 15 0 empty empty empty 17 7 0 10 #fcfcfc #000000
#000000 0 1;
#X obj 372 159 metro 1000;
#X obj 457 159 metro 1100;
#X msg 439 291 388;
#X obj 211 191 bng 15 250 50 0 empty empty empty 17 7 0 10 #fcfcfc
#000000 #000000;
#X obj 211 127 tgl 15 0 empty empty empty 17 7 0 10 #fcfcfc #000000
#000000 0 1;
#X msg 315 292 0;
#X obj 211 160 metro 1200;
#X connect 5 0 6 0;
#X connect 6 0 7 1;
#X connect 7 0 4 0;
#X connect 7 0 4 1;
#X connect 8 0 7 0;
#X connect 9 0 10 0;
#X connect 10 0 8 0;
#X connect 11 0 8 0;
#X connect 12 0 8 0;
#X connect 13 0 7 1;
#X connect 14 0 12 0;
#X connect 15 0 14 0;
#X connect 16 0 15 0;
#X connect 17 0 11 0;
#X connect 18 0 21 0;
#X connect 19 0 23 0;
#X connect 20 0 22 0;
#X connect 21 0 17 0;
#X connect 22 0 19 0;
#X connect 23 0 8 0;
#X connect 24 0 26 0;
#X connect 25 0 27 0;
#X connect 26 0 8 0;
#X connect 27 0 24 0;
