#N canvas 488 59 914 688 12;
#X obj 194 59 bng 15 250 50 0 empty empty empty 17 7 0 10 #fcfcfc #000000
#000000;
#X obj 191 162 line;
#X floatatom 191 186 5 0 0 0 - - - 0;
#X obj 191 209 osc~;
#X obj 191 245 output~;
#X obj 264 112 bng 15 250 50 0 empty empty empty 17 7 0 10 #fcfcfc
#000000 #000000;
#X obj 194 6 tgl 15 0 empty empty empty 17 7 0 10 #fcfcfc #000000 #000000
0 1;
#X text 4 110 target \, time \, grain;
#X obj 194 32 metro 400;
#X msg 143 110 1500 200 1;
#X msg 264 132 0 200 1;
#X obj 264 85 delay 200;
#X connect 0 0 9 0;
#X connect 0 0 11 0;
#X connect 1 0 2 0;
#X connect 2 0 3 0;
#X connect 3 0 4 0;
#X connect 3 0 4 1;
#X connect 5 0 10 0;
#X connect 6 0 8 0;
#X connect 8 0 0 0;
#X connect 9 0 1 0;
#X connect 10 0 1 0;
#X connect 11 0 5 0;
