#N canvas 488 59 914 688 12;
#X obj 207 85 bng 15 250 50 0 empty empty empty 17 7 0 10 #fcfcfc #000000
#000000;
#X obj 207 222 line;
#X floatatom 207 246 5 0 0 0 - - - 0;
#X obj 207 269 osc~;
#X obj 207 293 output~;
#X obj 318 141 bng 15 250 50 0 empty empty empty 17 7 0 10 #fcfcfc
#000000 #000000;
#X msg 207 148 1000 400;
#X obj 318 114 delay 400;
#X msg 318 161 0 400;
#X connect 0 0 6 0;
#X connect 0 0 7 0;
#X connect 1 0 2 0;
#X connect 2 0 3 0;
#X connect 3 0 4 0;
#X connect 5 0 8 0;
#X connect 6 0 1 0;
#X connect 7 0 5 0;
#X connect 8 0 1 0;
