#N canvas 261 60 1100 708 12;
#X obj 181 137 noise~;
#X obj 181 185 lop~;
#X obj 182 236 *~;
#X obj 181 314 dac~;
#X floatatom 232 167 5 0 0 0 - - - 0;
#X text 67 186 low pass filter;
#X obj 295 36 vsl 15 128 0 3000 0 0 empty empty empty 0 -9 0 10 #fcfcfc
#000000 #000000 0 1;
#X obj 332 87 vsl 15 128 0 1 0 0 empty empty empty 0 -9 0 10 #fcfcfc
#000000 #000000 0 1;
#X floatatom 245 218 5 0 0 0 - - - 0;
#X obj 481 119 noise~;
#X obj 482 218 *~;
#X obj 482 306 dac~;
#X floatatom 532 149 5 0 0 0 - - - 0;
#X obj 595 18 vsl 15 128 0 3000 0 0 empty empty empty 0 -9 0 10 #fcfcfc
#000000 #000000 0 1;
#X obj 632 69 vsl 15 128 0 1 0 0 empty empty empty 0 -9 0 10 #fcfcfc
#000000 #000000 0 1;
#X floatatom 545 200 5 0 0 0 - - - 0;
#X obj 481 167 hip~;
#X text 360 168 high pass filter;
#X obj 801 119 noise~;
#X obj 802 218 *~;
#X obj 802 307 dac~;
#X floatatom 852 138 5 0 0 0 - - - 0;
#X obj 915 7 vsl 15 128 0 3000 0 0 empty empty empty 0 -9 0 10 #fcfcfc
#000000 #000000 0 1;
#X obj 968 69 vsl 15 128 0 1 0 0 empty empty empty 0 -9 0 10 #fcfcfc
#000000 #000000 0 1;
#X floatatom 881 201 5 0 0 0 - - - 0;
#X obj 801 174 bp~;
#X floatatom 898 156 5 0 0 0 - - - 0;
#X obj 942 25 vsl 15 128 0 1 0 0 empty empty empty 0 -9 0 10 #fcfcfc
#000000 #000000 0 1;
#X text 680 175 band pass filter;
#X connect 0 0 1 0;
#X connect 1 0 2 0;
#X connect 2 0 3 0;
#X connect 2 0 3 1;
#X connect 4 0 1 1;
#X connect 6 0 4 0;
#X connect 7 0 8 0;
#X connect 8 0 2 1;
#X connect 9 0 16 0;
#X connect 10 0 11 0;
#X connect 10 0 11 1;
#X connect 12 0 16 1;
#X connect 13 0 12 0;
#X connect 14 0 15 0;
#X connect 15 0 10 1;
#X connect 16 0 10 0;
#X connect 18 0 25 0;
#X connect 19 0 20 0;
#X connect 19 0 20 1;
#X connect 21 0 25 1;
#X connect 22 0 21 0;
#X connect 23 0 24 0;
#X connect 24 0 19 1;
#X connect 25 0 19 0;
#X connect 26 0 25 2;
#X connect 27 0 26 0;
