#N canvas 458 32 923 780 12;
#X msg 238 148 220;
#X obj 312 221 * 2;
#X floatatom 312 250 5 0 0 0 - - - 0;
#X obj 312 278 osc~;
#X floatatom 355 250 5 0 0 0 - - - 0;
#X obj 355 278 osc~;
#X floatatom 398 250 5 0 0 0 - - - 0;
#X obj 398 278 osc~;
#X floatatom 441 250 5 0 0 0 - - - 0;
#X obj 441 278 osc~;
#X obj 355 221 * 4;
#X obj 398 221 * 6;
#X obj 441 221 * 8;
#X obj 387 449 *~;
#X msg 449 409 0;
#X obj 520 312 vsl 15 128 0 1 0 0 empty empty empty 0 -9 0 10 #feffc6
#000000 #000000 0 1;
#X obj 238 221 osc~;
#X obj 387 503 dac~;
#X obj 387 397 *~;
#X obj 491 234 vsl 15 128 0 1 0 0 empty empty empty 0 -9 0 10 #ffe3c6
#000000 #000000 0 1;
#X obj 238 110 tgl 15 0 empty empty empty 17 7 0 10 #fcfcfc #000000
#000000 0 1;
#X connect 0 0 16 0;
#X connect 0 0 1 0;
#X connect 0 0 10 0;
#X connect 0 0 11 0;
#X connect 0 0 12 0;
#X connect 1 0 2 0;
#X connect 2 0 3 0;
#X connect 3 0 18 0;
#X connect 4 0 5 0;
#X connect 5 0 18 0;
#X connect 6 0 7 0;
#X connect 7 0 18 0;
#X connect 8 0 9 0;
#X connect 9 0 18 0;
#X connect 10 0 4 0;
#X connect 11 0 6 0;
#X connect 12 0 8 0;
#X connect 13 0 17 0;
#X connect 13 0 17 1;
#X connect 14 0 13 1;
#X connect 15 0 13 1;
#X connect 16 0 13 0;
#X connect 18 0 13 0;
#X connect 19 0 18 1;
#X connect 20 0 0 0;
