#N canvas 157 156 964 710 12;
#X obj 419 280 osc~;
#X obj 419 328 *~;
#X msg 458 280 0;
#X obj 493 138 vsl 15 128 0 1 0 0 empty empty empty 0 -9 0 10 #feffc6
#000000 #000000 0 1;
#X floatatom 493 280 5 0 0 0 - - - 0;
#X obj 419 376 dac~;
#X msg 221 136 60;
#X msg 254 136 62;
#X msg 287 136 64;
#X msg 320 136 65;
#X msg 353 136 67;
#X msg 386 136 69;
#X msg 419 136 71;
#X msg 452 136 72;
#X text 239 119 C;
#X text 272 119 D;
#X text 305 119 E;
#X text 337 119 F;
#X text 371 119 G;
#X text 404 119 A;
#X text 437 119 B;
#X text 470 119 C;
#X obj 419 210 mtof;
#X floatatom 419 245 5 0 0 0 - - - 0;
#X msg 155 136 57;
#X msg 122 136 55;
#X msg 188 136 59;
#X text 140 119 G;
#X text 173 119 A;
#X text 206 119 B;
#X connect 0 0 1 0;
#X connect 1 0 5 0;
#X connect 2 0 1 1;
#X connect 3 0 4 0;
#X connect 4 0 1 1;
#X connect 6 0 22 0;
#X connect 7 0 22 0;
#X connect 8 0 22 0;
#X connect 9 0 22 0;
#X connect 10 0 22 0;
#X connect 11 0 22 0;
#X connect 12 0 22 0;
#X connect 13 0 22 0;
#X connect 22 0 23 0;
#X connect 23 0 0 0;
#X connect 24 0 22 0;
#X connect 25 0 22 0;
#X connect 26 0 22 0;
